# xmcd CD database file
#
# Track frame offsets:
#	150
#	40836
#	81916
#	103128
#	138115
#	163878
#	189216
#	224389
#
# Disc length: 3561 seconds
#
# Revision: 0
# Processed by: cddbd v1.5.2PL0 Copyright (c) Steve Scherf et al.
# Submitted via: CDex 1.51
#
DISCID=690de708
DTITLE=Kitaro - Celestial Scenery 05-Holy Vibration
DYEAR=2011
DGENRE=New Age
TTITLE0=Matsuri
TTITLE1=Dance Of Sarasvati (live)
TTITLE2=Moondance
TTITLE3=Underworld
TTITLE4=Winter Waltz
TTITLE5=Peace Through Kindness
TTITLE6=Fiesta
TTITLE7=Matsuri (live)
EXTD=YEAR: 2011
EXTT0=
EXTT1=
EXTT2=
EXTT3=
EXTT4=
EXTT5=
EXTT6=
EXTT7=
PLAYORDER=
